<svg id="Layer_1" data-name="Layer 1" xmlns="http://www.w3.org/2000/svg" viewBox="0 0 98 69.69"><defs><style>.cls-1{fill:#161616;}</style></defs><title>chillhop</title><path class="cls-1" d="M80.49,11.53H94.64A4.37,4.37,0,0,1,99,15.88V66a4.37,4.37,0,0,1-4.36,4.36H5.36A4.37,4.37,0,0,1,1,66V15.88a4.37,4.37,0,0,1,4.36-4.36H21.69V2.82A2.18,2.18,0,0,1,23.87.64H78.31a2.19,2.19,0,0,1,2.18,2.18Zm16.33,4.36a2.18,2.18,0,0,0-2.18-2.18H5.36a2.18,2.18,0,0,0-2.18,2.18V66a2.18,2.18,0,0,0,2.18,2.18H94.64A2.19,2.19,0,0,0,96.82,66ZM7.53,18.06A1,1,0,0,1,8.62,17H36.93A1,1,0,0,1,38,18.06v4.35a1,1,0,0,1-1.09,1.09H8.62a1,1,0,0,1-1.09-1.09Zm1.09,8.71H91.38a1.09,1.09,0,1,1,0,2.18H8.62a1.09,1.09,0,1,1,0-2.18ZM22.78,33.3A15.24,15.24,0,1,1,7.53,48.55,15.29,15.29,0,0,1,22.78,33.3Zm-13.07-12H35.84V19.15H9.71ZM22.78,61.62A13.07,13.07,0,1,0,9.71,48.55,13.11,13.11,0,0,0,22.78,61.62Zm0-19.6a6.53,6.53,0,1,1-6.53,6.53A6.55,6.55,0,0,1,22.78,42Zm0,10.89a4.36,4.36,0,1,0-4.35-4.36A4.37,4.37,0,0,0,22.78,52.91Zm1.09-41.38H26V5H76.13v6.53h2.18V2.82H23.87Zm4.35,0H74V7.17H28.22Zm15.24,25H56.53a1.09,1.09,0,0,1,0,2.18H43.47a1.09,1.09,0,0,1,0-2.18ZM57.62,55.08H42.38V42H57.62ZM43.47,57.26a1.09,1.09,0,1,1-1.09,1.09A1,1,0,0,1,43.47,57.26Zm1.09-4.36H55.44V44.19H44.56Zm3.27,4.36a1.09,1.09,0,1,1-1.09,1.09A1,1,0,0,1,47.82,57.26Zm4.36,0a1.09,1.09,0,1,1-1.09,1.09A1,1,0,0,1,52.18,57.26Zm4.35,0a1.09,1.09,0,1,1-1.09,1.09A1,1,0,0,1,56.53,57.26Zm2.18-39.2a2.18,2.18,0,1,1-2.18,2.18A2.18,2.18,0,0,1,58.71,18.06ZM77.22,33.3A15.24,15.24,0,1,1,62,48.55,15.29,15.29,0,0,1,77.22,33.3ZM66.33,18.06a2.18,2.18,0,1,1-2.18,2.18A2.18,2.18,0,0,1,66.33,18.06ZM77.22,61.62A13.07,13.07,0,1,0,64.16,48.55,13.11,13.11,0,0,0,77.22,61.62Zm0-19.6a6.53,6.53,0,1,1-6.53,6.53A6.55,6.55,0,0,1,77.22,42ZM76.13,15.88a4.36,4.36,0,1,1-4.36,4.36A4.37,4.37,0,0,1,76.13,15.88Zm1.09,37a4.36,4.36,0,1,0-4.36-4.36A4.37,4.37,0,0,0,77.22,52.91ZM76.13,22.42A2.18,2.18,0,1,0,74,20.24,2.18,2.18,0,0,0,76.13,22.42Zm12-6.53a4.36,4.36,0,1,1-4.36,4.36A4.37,4.37,0,0,1,88.11,15.88Zm0,6.53a2.18,2.18,0,1,0-2.18-2.18A2.18,2.18,0,0,0,88.11,22.42Z" transform="translate(-1 -0.64)"/></svg>