<?xml version="1.0" encoding="utf-8"?>
<!-- Generator: Adobe Illustrator 20.1.0, SVG Export Plug-In . SVG Version: 6.00 Build 0)  -->
<svg version="1.1" id="Layer_1" xmlns="http://www.w3.org/2000/svg" xmlns:xlink="http://www.w3.org/1999/xlink" x="0px" y="0px"
	 viewBox="0 0 100 72.4" style="enable-background:new 0 0 100 72.4;" xml:space="preserve">
<style type="text/css">
	.st0{fill:#161616;}
</style>
<g>
	<path class="st0" d="M80.5,12.3h14.2c2.4,0,4.4,2,4.4,4.4v50.1c0,2.4-2,4.4-4.4,4.4H5.4c-2.4,0-4.4-2-4.4-4.4V16.7
		c0-2.4,2-4.4,4.4-4.4h16.3V3.6c0-1.2,1-2.2,2.2-2.2h54.4c1.2,0,2.2,1,2.2,2.2V12.3z M96.8,16.7c0-1.2-1-2.2-2.2-2.2H5.4
		c-1.2,0-2.2,1-2.2,2.2v50.1c0,1.2,1,2.2,2.2,2.2h89.3c1.2,0,2.2-1,2.2-2.2L96.8,16.7z M7.5,18.9c0-0.7,0.4-1.1,1.1-1.1h28.3
		c0.7,0,1.1,0.4,1.1,1.1v4.4c0,0.7-0.4,1.1-1.1,1.1H8.6c-0.7,0-1.1-0.4-1.1-1.1L7.5,18.9z M8.6,27.6h82.8c0.7,0,1.1,0.4,1.1,1.1
		s-0.4,1.1-1.1,1.1H8.6c-0.7,0-1.1-0.4-1.1-1.1S8,27.6,8.6,27.6z M22.8,34.1C31.2,34.1,38,41,38,49.4c0,8.4-6.9,15.2-15.2,15.2
		c-8.4,0-15.2-6.9-15.2-15.2C7.5,41,14.4,34.1,22.8,34.1z M9.7,22.1h26.1V20H9.7V22.1z M22.8,62.4c7.2,0,13.1-5.9,13.1-13.1
		S30,36.3,22.8,36.3S9.7,42.2,9.7,49.4C9.7,56.5,15.6,62.4,22.8,62.4z M22.8,42.8c3.6,0,6.5,2.9,6.5,6.5c0,3.6-2.9,6.5-6.5,6.5
		s-6.5-2.9-6.5-6.5C16.2,45.8,19.2,42.8,22.8,42.8z M22.8,53.7c2.4,0,4.4-2,4.4-4.4s-2-4.4-4.4-4.4s-4.4,2-4.4,4.4
		S20.4,53.7,22.8,53.7z M23.9,12.3H26V5.8h50.1v6.5h2.2V3.6H23.9V12.3z M28.2,12.3H74V8H28.2V12.3z M43.5,37.4h13.1
		c0.7,0,1.1,0.4,1.1,1.1c0,0.7-0.4,1.1-1.1,1.1H43.5c-0.7,0-1.1-0.4-1.1-1.1C42.4,37.8,42.8,37.4,43.5,37.4z M57.6,55.9H42.4V42.8
		h15.2L57.6,55.9z M43.5,58.1c0.7,0,1.1,0.4,1.1,1.1s-0.4,1.1-1.1,1.1c-0.7,0-1.1-0.4-1.1-1.1S42.8,58.1,43.5,58.1z M44.6,53.7h10.9
		V45H44.6V53.7z M47.8,58.1c0.7,0,1.1,0.4,1.1,1.1s-0.4,1.1-1.1,1.1s-1.1-0.4-1.1-1.1S47.2,58.1,47.8,58.1z M52.2,58.1
		c0.7,0,1.1,0.4,1.1,1.1s-0.4,1.1-1.1,1.1c-0.7,0-1.1-0.4-1.1-1.1S51.5,58.1,52.2,58.1z M56.5,58.1c0.7,0,1.1,0.4,1.1,1.1
		s-0.4,1.1-1.1,1.1c-0.7,0-1.1-0.4-1.1-1.1S55.9,58.1,56.5,58.1z M58.7,18.9c1.2,0,2.2,1,2.2,2.2s-1,2.2-2.2,2.2
		c-1.2,0-2.2-1-2.2-2.2S57.5,18.9,58.7,18.9z M77.2,34.1c8.4,0,15.2,6.9,15.2,15.2c0,8.4-6.9,15.2-15.2,15.2
		c-8.4,0-15.2-6.9-15.2-15.2C62,41,68.8,34.1,77.2,34.1z M66.3,18.9c1.2,0,2.2,1,2.2,2.2s-1,2.2-2.2,2.2c-1.2,0-2.2-1-2.2-2.2
		S65.1,18.9,66.3,18.9z M77.2,62.4c7.2,0,13.1-5.9,13.1-13.1s-5.9-13.1-13.1-13.1c-7.2,0-13.1,5.9-13.1,13.1
		C64.2,56.5,70,62.4,77.2,62.4z M77.2,42.8c3.6,0,6.5,2.9,6.5,6.5c0,3.6-2.9,6.5-6.5,6.5c-3.6,0-6.5-2.9-6.5-6.5
		C70.7,45.8,73.6,42.8,77.2,42.8z M76.1,16.7c2.4,0,4.4,2,4.4,4.4s-2,4.4-4.4,4.4s-4.4-2-4.4-4.4S73.7,16.7,76.1,16.7z M77.2,53.7
		c2.4,0,4.4-2,4.4-4.4s-2-4.4-4.4-4.4c-2.4,0-4.4,2-4.4,4.4S74.8,53.7,77.2,53.7z M76.1,23.2c1.2,0,2.2-1,2.2-2.2s-1-2.2-2.2-2.2
		c-1.2,0-2.2,1-2.2,2.2S74.9,23.2,76.1,23.2z M88.1,16.7c2.4,0,4.4,2,4.4,4.4s-2,4.4-4.4,4.4c-2.4,0-4.4-2-4.4-4.4
		S85.7,16.7,88.1,16.7z M88.1,23.2c1.2,0,2.2-1,2.2-2.2s-1-2.2-2.2-2.2s-2.2,1-2.2,2.2S86.9,23.2,88.1,23.2z"/>
</g>
<g>
	<path class="st0" d="M80.5,86h14.2c2.4,0,4.4,2,4.4,4.4v50.1c0,2.4-2,4.4-4.4,4.4H5.4c-2.4,0-4.4-2-4.4-4.4V90.3
		C1,87.9,3,86,5.4,86h16.3v-8.7c0-1.2,1-2.2,2.2-2.2h54.4c1.2,0,2.2,1,2.2,2.2V86z M96.8,90.3c0-1.2-1-2.2-2.2-2.2H5.4
		c-1.2,0-2.2,1-2.2,2.2v50.1c0,1.2,1,2.2,2.2,2.2h89.3c1.2,0,2.2-1,2.2-2.2L96.8,90.3z M7.5,92.5c0-0.7,0.4-1.1,1.1-1.1h28.3
		c0.7,0,1.1,0.4,1.1,1.1v4.4c0,0.7-0.4,1.1-1.1,1.1H8.6c-0.7,0-1.1-0.4-1.1-1.1L7.5,92.5z M8.6,101.2h82.8c0.7,0,1.1,0.4,1.1,1.1
		s-0.4,1.1-1.1,1.1H8.6c-0.7,0-1.1-0.4-1.1-1.1S8,101.2,8.6,101.2z M22.8,107.8c8.4,0,15.2,6.9,15.2,15.2c0,8.4-6.9,15.2-15.2,15.2
		c-8.4,0-15.2-6.9-15.2-15.2C7.5,114.6,14.4,107.8,22.8,107.8z M9.7,95.8h26.1v-2.2H9.7V95.8z M22.8,136.1c7.2,0,13.1-5.9,13.1-13.1
		s-5.9-13.1-13.1-13.1S9.7,115.8,9.7,123C9.7,130.2,15.6,136.1,22.8,136.1z M22.8,116.5c3.6,0,6.5,2.9,6.5,6.5
		c0,3.6-2.9,6.5-6.5,6.5s-6.5-2.9-6.5-6.5C16.2,119.4,19.2,116.5,22.8,116.5z M22.8,127.4c2.4,0,4.4-2,4.4-4.4c0-2.4-2-4.4-4.4-4.4
		s-4.4,2-4.4,4.4C18.4,125.4,20.4,127.4,22.8,127.4z M23.9,86H26v-6.5h50.1V86h2.2v-8.7H23.9V86z M28.2,86H74v-4.4H28.2V86z
		 M43.5,111h13.1c0.7,0,1.1,0.4,1.1,1.1c0,0.7-0.4,1.1-1.1,1.1H43.5c-0.7,0-1.1-0.4-1.1-1.1C42.4,111.5,42.8,111,43.5,111z
		 M57.6,129.5H42.4v-13.1h15.2L57.6,129.5z M43.5,131.7c0.7,0,1.1,0.4,1.1,1.1s-0.4,1.1-1.1,1.1c-0.7,0-1.1-0.4-1.1-1.1
		S42.8,131.7,43.5,131.7z M44.6,127.4h10.9v-8.7H44.6V127.4z M47.8,131.7c0.7,0,1.1,0.4,1.1,1.1s-0.4,1.1-1.1,1.1s-1.1-0.4-1.1-1.1
		S47.2,131.7,47.8,131.7z M52.2,131.7c0.7,0,1.1,0.4,1.1,1.1s-0.4,1.1-1.1,1.1c-0.7,0-1.1-0.4-1.1-1.1S51.5,131.7,52.2,131.7z
		 M56.5,131.7c0.7,0,1.1,0.4,1.1,1.1s-0.4,1.1-1.1,1.1c-0.7,0-1.1-0.4-1.1-1.1S55.9,131.7,56.5,131.7z M58.7,92.5
		c1.2,0,2.2,1,2.2,2.2c0,1.2-1,2.2-2.2,2.2c-1.2,0-2.2-1-2.2-2.2C56.5,93.5,57.5,92.5,58.7,92.5z M77.2,107.8
		c8.4,0,15.2,6.9,15.2,15.2c0,8.4-6.9,15.2-15.2,15.2c-8.4,0-15.2-6.9-15.2-15.2C62,114.6,68.8,107.8,77.2,107.8z M66.3,92.5
		c1.2,0,2.2,1,2.2,2.2c0,1.2-1,2.2-2.2,2.2c-1.2,0-2.2-1-2.2-2.2C64.2,93.5,65.1,92.5,66.3,92.5z M77.2,136.1
		c7.2,0,13.1-5.9,13.1-13.1s-5.9-13.1-13.1-13.1c-7.2,0-13.1,5.9-13.1,13.1C64.2,130.2,70,136.1,77.2,136.1z M77.2,116.5
		c3.6,0,6.5,2.9,6.5,6.5c0,3.6-2.9,6.5-6.5,6.5c-3.6,0-6.5-2.9-6.5-6.5C70.7,119.4,73.6,116.5,77.2,116.5z M76.1,90.3
		c2.4,0,4.4,2,4.4,4.4c0,2.4-2,4.4-4.4,4.4s-4.4-2-4.4-4.4C71.8,92.3,73.7,90.3,76.1,90.3z M77.2,127.4c2.4,0,4.4-2,4.4-4.4
		c0-2.4-2-4.4-4.4-4.4c-2.4,0-4.4,2-4.4,4.4C72.9,125.4,74.8,127.4,77.2,127.4z M76.1,96.9c1.2,0,2.2-1,2.2-2.2c0-1.2-1-2.2-2.2-2.2
		c-1.2,0-2.2,1-2.2,2.2C74,95.9,74.9,96.9,76.1,96.9z M88.1,90.3c2.4,0,4.4,2,4.4,4.4c0,2.4-2,4.4-4.4,4.4c-2.4,0-4.4-2-4.4-4.4
		C83.8,92.3,85.7,90.3,88.1,90.3z M88.1,96.9c1.2,0,2.2-1,2.2-2.2c0-1.2-1-2.2-2.2-2.2s-2.2,1-2.2,2.2
		C85.9,95.9,86.9,96.9,88.1,96.9z"/>
</g>
</svg>
