<svg id="Layer_1" data-name="Layer 1" xmlns="http://www.w3.org/2000/svg" viewBox="0 0 98 68.6"><defs><style>.cls-1{fill:none;}.cls-2,.cls-3{fill:#333;}.cls-3{stroke:#333;stroke-miterlimit:10;stroke-width:0.5px;}</style></defs><title>classical</title><path class="cls-1" d="M31,60V48H29V60a1.93,1.93,0,0,1-2,2v6h6V62A1.93,1.93,0,0,1,31,60Z" transform="translate(-1 -1.4)"/><path class="cls-1" d="M23,60V48H21V60a1.93,1.93,0,0,1-2,2v6h6V62A1.93,1.93,0,0,1,23,60Z" transform="translate(-1 -1.4)"/><path class="cls-1" d="M7,60V48H3V67a1,1,0,0,0,1,1H9V62A1.93,1.93,0,0,1,7,60Z" transform="translate(-1 -1.4)"/><path class="cls-1" d="M15,60V48H13V60a1.93,1.93,0,0,1-2,2v6h6V62A1.93,1.93,0,0,1,15,60Z" transform="translate(-1 -1.4)"/><path class="cls-1" d="M21,10.5V25.8A10.45,10.45,0,0,1,12.17,36,11.09,11.09,0,0,0,3,46H25V35a1,1,0,0,1,1-1H46a1,1,0,0,1,1,1V46h3V3.5H28A7,7,0,0,0,21,10.5Z" transform="translate(-1 -1.4)"/><path class="cls-1" d="M39,60V48H37V60a1.93,1.93,0,0,1-2,2v6h6V62A1.93,1.93,0,0,1,39,60Z" transform="translate(-1 -1.4)"/><path class="cls-1" d="M47,60V48H45V60a1.93,1.93,0,0,1-2,2v6h6V62A1.93,1.93,0,0,1,47,60Z" transform="translate(-1 -1.4)"/><rect class="cls-1" x="48" y="46.6" width="1" height="12"/><polygon class="cls-1" points="25 58.6 26 58.6 26 46.59 25 46.59 24 46.59 24 58.6 25 58.6"/><polygon class="cls-1" points="10 46.59 8 46.59 8 58.6 9 58.6 10 58.6 10 46.59"/><polygon class="cls-1" points="17 58.6 18 58.6 18 46.59 16 46.59 16 58.6 17 58.6"/><path class="cls-1" d="M36,46h9V36H27V46h9Zm6-2H36a1,1,0,0,1,0-2h6a1,1,0,0,1,0,2Zm-3-6h3a1,1,0,0,1,0,2H39a1,1,0,0,1,0-2Zm-9,0h5a1,1,0,0,1,0,2H30a1,1,0,0,1,0-2Zm-1,5a1,1,0,0,1,1-1h2a1,1,0,0,1,0,2H30A1,1,0,0,1,29,43Z" transform="translate(-1 -1.4)"/><polygon class="cls-1" points="49 58.6 50 58.6 50 46.59 49 46.59 49 58.6 49 58.6"/><polygon class="cls-1" points="41 58.6 42 58.6 42 46.59 40 46.59 40 58.6 41 58.6"/><polygon class="cls-1" points="33 58.6 34 58.6 34 46.59 32 46.59 32 58.6 33 58.6"/><path class="cls-2" d="M41,69V68H35v1a1,1,0,0,1-1,1h8A1,1,0,0,1,41,69Z" transform="translate(-1 -1.4)"/><path class="cls-2" d="M33,69V68H27v1a1,1,0,0,1-1,1h8A1,1,0,0,1,33,69Z" transform="translate(-1 -1.4)"/><polygon class="cls-2" points="49 68.6 49 68.6 49 68.6 49 68.6"/><path class="cls-2" d="M49,69V68H43v1a1,1,0,0,1-1,1h8A1,1,0,0,1,49,69Z" transform="translate(-1 -1.4)"/><path class="cls-2" d="M25,69V68H19v1a1,1,0,0,1-1,1h8A1,1,0,0,1,25,69Z" transform="translate(-1 -1.4)"/><path class="cls-2" d="M9,69V68H4a1,1,0,0,1-1-1V48H2a1,1,0,0,1-1-1V67a3,3,0,0,0,3,3h6A1,1,0,0,1,9,69Z" transform="translate(-1 -1.4)"/><path class="cls-2" d="M17,69V68H11v1a1,1,0,0,1-1,1h8A1,1,0,0,1,17,69Z" transform="translate(-1 -1.4)"/><polygon class="cls-2" points="49 58.6 49 58.6 49 58.6 49 58.6"/><path class="cls-2" d="M50,60H49V48H47V60a1.93,1.93,0,0,0,2,2V61A1,1,0,0,1,50,60Z" transform="translate(-1 -1.4)"/><path class="cls-2" d="M43,60H42a1,1,0,0,1,1,1v1a1.93,1.93,0,0,0,2-2V48H43Z" transform="translate(-1 -1.4)"/><path class="cls-2" d="M42,60H41V48H39V60a1.93,1.93,0,0,0,2,2V61A1,1,0,0,1,42,60Z" transform="translate(-1 -1.4)"/><path class="cls-2" d="M35,60H34a1,1,0,0,1,1,1v1a1.93,1.93,0,0,0,2-2V48H35Z" transform="translate(-1 -1.4)"/><path class="cls-2" d="M34,60H33V48H31V60a1.93,1.93,0,0,0,2,2V61A1,1,0,0,1,34,60Z" transform="translate(-1 -1.4)"/><path class="cls-2" d="M27,60H26a1,1,0,0,1,1,1v1a1.93,1.93,0,0,0,2-2V48H27Z" transform="translate(-1 -1.4)"/><path class="cls-2" d="M26,60H25V48H23V60a1.93,1.93,0,0,0,2,2V61A1,1,0,0,1,26,60Z" transform="translate(-1 -1.4)"/><path class="cls-2" d="M18,60H17V48H15V60a1.93,1.93,0,0,0,2,2V61A1,1,0,0,1,18,60Z" transform="translate(-1 -1.4)"/><path class="cls-2" d="M19,60H18a1,1,0,0,1,1,1v1a1.93,1.93,0,0,0,2-2V48H19Z" transform="translate(-1 -1.4)"/><path class="cls-2" d="M11,60H10a1,1,0,0,1,1,1v1a1.93,1.93,0,0,0,2-2V48H11Z" transform="translate(-1 -1.4)"/><path class="cls-2" d="M9,62V61a1,1,0,0,1,1-1H9V48H7V60A1.93,1.93,0,0,0,9,62Z" transform="translate(-1 -1.4)"/><rect class="cls-2" x="48" y="60.6" width="1" height="6"/><rect class="cls-2" x="49" y="60.6" width="1" height="6"/><path class="cls-2" d="M49,69a1,1,0,0,0,1,1V68H49Z" transform="translate(-1 -1.4)"/><path class="cls-2" d="M51,69V68H50v2h0A1,1,0,0,0,51,69Z" transform="translate(-1 -1.4)"/><path class="cls-2" d="M49,61v1h1V60A1,1,0,0,0,49,61Z" transform="translate(-1 -1.4)"/><path class="cls-2" d="M50,62h1V61a1,1,0,0,0-1-1h0Z" transform="translate(-1 -1.4)"/><rect class="cls-2" x="40" y="60.6" width="2" height="6"/><path class="cls-2" d="M43,69V68H41v1a1,1,0,0,0,2,0Z" transform="translate(-1 -1.4)"/><path class="cls-2" d="M42,60a1,1,0,0,0-1,1v1h2V61A1,1,0,0,0,42,60Z" transform="translate(-1 -1.4)"/><rect class="cls-2" x="32" y="60.6" width="2" height="6"/><path class="cls-2" d="M35,69V68H33v1a1,1,0,0,0,2,0Z" transform="translate(-1 -1.4)"/><path class="cls-2" d="M34,60a1,1,0,0,0-1,1v1h2V61A1,1,0,0,0,34,60Z" transform="translate(-1 -1.4)"/><rect class="cls-2" x="24" y="60.6" width="2" height="6"/><path class="cls-2" d="M27,69V68H25v1a1,1,0,0,0,2,0Z" transform="translate(-1 -1.4)"/><path class="cls-2" d="M26,60a1,1,0,0,0-1,1v1h2V61A1,1,0,0,0,26,60Z" transform="translate(-1 -1.4)"/><rect class="cls-2" x="16" y="60.6" width="2" height="6"/><path class="cls-2" d="M19,69V68H17v1a1,1,0,0,0,2,0Z" transform="translate(-1 -1.4)"/><path class="cls-2" d="M18,60a1,1,0,0,0-1,1v1h2V61A1,1,0,0,0,18,60Z" transform="translate(-1 -1.4)"/><rect class="cls-2" x="8" y="60.6" width="2" height="6"/><path class="cls-2" d="M11,69V68H9v1a1,1,0,0,0,2,0Z" transform="translate(-1 -1.4)"/><path class="cls-2" d="M10,60a1,1,0,0,0-1,1v1h2V61A1,1,0,0,0,10,60Z" transform="translate(-1 -1.4)"/><path class="cls-2" d="M27,36H45V46h2V35a1,1,0,0,0-1-1H26a1,1,0,0,0-1,1V46h2Z" transform="translate(-1 -1.4)"/><path class="cls-2" d="M30,40h5a1,1,0,0,0,0-2H30a1,1,0,0,0,0,2Z" transform="translate(-1 -1.4)"/><path class="cls-2" d="M39,40h3a1,1,0,0,0,0-2H39a1,1,0,0,0,0,2Z" transform="translate(-1 -1.4)"/><path class="cls-2" d="M33,43a1,1,0,0,0-1-1H30a1,1,0,0,0,0,2h2A1,1,0,0,0,33,43Z" transform="translate(-1 -1.4)"/><path class="cls-2" d="M42,42H36a1,1,0,0,0,0,2h6a1,1,0,0,0,0-2Z" transform="translate(-1 -1.4)"/><path class="cls-2" d="M13,47v1h2V47a1,1,0,0,1,1-1H12A1,1,0,0,1,13,47Z" transform="translate(-1 -1.4)"/><path class="cls-2" d="M21,47v1h2V47a1,1,0,0,1,1-1H20A1,1,0,0,1,21,47Z" transform="translate(-1 -1.4)"/><path class="cls-2" d="M46,48h1V47A1,1,0,0,1,46,48Z" transform="translate(-1 -1.4)"/><path class="cls-2" d="M48,46H47v1A1,1,0,0,1,48,46Z" transform="translate(-1 -1.4)"/><path class="cls-2" d="M2,48H7V47a1,1,0,0,1,1-1H2a1,1,0,0,0,0,2Z" transform="translate(-1 -1.4)"/><path class="cls-2" d="M47,47v1h3V46H48A1,1,0,0,0,47,47Z" transform="translate(-1 -1.4)"/><path class="cls-2" d="M23,47v1h3a1,1,0,0,1-1-1V46H24A1,1,0,0,0,23,47Z" transform="translate(-1 -1.4)"/><path class="cls-2" d="M15,47v1h6V47a1,1,0,0,0-1-1H16A1,1,0,0,0,15,47Z" transform="translate(-1 -1.4)"/><path class="cls-2" d="M11,48h2V47a1,1,0,0,0-1-1H8a1,1,0,0,0-1,1v1h4Z" transform="translate(-1 -1.4)"/><path class="cls-2" d="M32,46H28a1,1,0,0,1,1,1v1h2V47A1,1,0,0,1,32,46Z" transform="translate(-1 -1.4)"/><path class="cls-2" d="M40,46H36a1,1,0,0,1,1,1v1h2V47A1,1,0,0,1,40,46Z" transform="translate(-1 -1.4)"/><path class="cls-2" d="M44,46a1,1,0,0,1,1,1v1h1a1,1,0,0,0,1-1V46H44Z" transform="translate(-1 -1.4)"/><path class="cls-2" d="M44,46H40a1,1,0,0,0-1,1v1h6V47A1,1,0,0,0,44,46Z" transform="translate(-1 -1.4)"/><path class="cls-2" d="M36,46H32a1,1,0,0,0-1,1v1h6V47A1,1,0,0,0,36,46Z" transform="translate(-1 -1.4)"/><path class="cls-2" d="M26,48h3V47a1,1,0,0,0-1-1H25v1A1,1,0,0,0,26,48Z" transform="translate(-1 -1.4)"/><path class="cls-1" d="M69,60V48h2V60a1.93,1.93,0,0,0,2,2v6H67V62A1.93,1.93,0,0,0,69,60Z" transform="translate(-1 -1.4)"/><path class="cls-1" d="M77,60V48h2V60a1.93,1.93,0,0,0,2,2v6H75V62A1.93,1.93,0,0,0,77,60Z" transform="translate(-1 -1.4)"/><path class="cls-1" d="M93,60V48h4V67a1,1,0,0,1-1,1H91V62A1.93,1.93,0,0,0,93,60Z" transform="translate(-1 -1.4)"/><path class="cls-1" d="M85,60V48h2V60a1.93,1.93,0,0,0,2,2v6H83V62A1.93,1.93,0,0,0,85,60Z" transform="translate(-1 -1.4)"/><path class="cls-1" d="M79,10.5V25.8A10.45,10.45,0,0,0,87.83,36,11.09,11.09,0,0,1,97,46H75V35a1,1,0,0,0-1-1H54a1,1,0,0,0-1,1V46H50V3.5H72A7,7,0,0,1,79,10.5Z" transform="translate(-1 -1.4)"/><path class="cls-1" d="M61,60V48h2V60a1.93,1.93,0,0,0,2,2v6H59V62A1.93,1.93,0,0,0,61,60Z" transform="translate(-1 -1.4)"/><path class="cls-1" d="M53,60V48h2V60a1.93,1.93,0,0,0,2,2v6H51V62A1.93,1.93,0,0,0,53,60Z" transform="translate(-1 -1.4)"/><rect class="cls-1" x="49" y="46.6" width="1" height="12"/><polygon class="cls-1" points="73 58.6 72 58.6 72 46.59 73 46.59 74 46.59 74 58.6 73 58.6"/><polygon class="cls-1" points="88 46.59 90 46.59 90 58.6 89 58.6 88 58.6 88 46.59"/><polygon class="cls-1" points="81 58.6 80 58.6 80 46.59 82 46.59 82 58.6 81 58.6"/><path class="cls-1" d="M68,46h5V36H55V46H68ZM57,43a1,1,0,0,1,1-1h6a1,1,0,0,1,0,2H58A1,1,0,0,1,57,43Zm5-4a1,1,0,0,1-1,1H58a1,1,0,0,1,0-2h3A1,1,0,0,1,62,39Zm9,0a1,1,0,0,1-1,1H65a1,1,0,0,1,0-2h5A1,1,0,0,1,71,39Zm-1,5H68a1,1,0,0,1,0-2h2a1,1,0,0,1,0,2Z" transform="translate(-1 -1.4)"/><polygon class="cls-1" points="49 58.6 48 58.6 48 46.59 49 46.59 49 58.6 49 58.6"/><polygon class="cls-1" points="57 58.6 56 58.6 56 46.59 58 46.59 58 58.6 57 58.6"/><polygon class="cls-1" points="65 58.6 64 58.6 64 46.59 66 46.59 66 58.6 65 58.6"/><path class="cls-2" d="M59,69V68h6v1a1,1,0,0,0,1,1H58A1,1,0,0,0,59,69Z" transform="translate(-1 -1.4)"/><path class="cls-2" d="M67,69V68h6v1a1,1,0,0,0,1,1H66A1,1,0,0,0,67,69Z" transform="translate(-1 -1.4)"/><polygon class="cls-2" points="49 68.6 49 68.6 49 68.6 49 68.6"/><path class="cls-2" d="M51,69V68h6v1a1,1,0,0,0,1,1H50A1,1,0,0,0,51,69Z" transform="translate(-1 -1.4)"/><path class="cls-2" d="M75,69V68h6v1a1,1,0,0,0,1,1H74A1,1,0,0,0,75,69Z" transform="translate(-1 -1.4)"/><path class="cls-2" d="M91,69V68h5a1,1,0,0,0,1-1V48h1a1,1,0,0,0,1-1V67a3,3,0,0,1-3,3H90A1,1,0,0,0,91,69Z" transform="translate(-1 -1.4)"/><path class="cls-2" d="M83,69V68h6v1a1,1,0,0,0,1,1H82A1,1,0,0,0,83,69Z" transform="translate(-1 -1.4)"/><polygon class="cls-2" points="49 58.6 49 58.6 49 58.6 49 58.6"/><path class="cls-2" d="M50,60h1V48h2V60a1.93,1.93,0,0,1-2,2V61A1,1,0,0,0,50,60Z" transform="translate(-1 -1.4)"/><path class="cls-2" d="M57,60h1a1,1,0,0,0-1,1v1a1.93,1.93,0,0,1-2-2V48h2Z" transform="translate(-1 -1.4)"/><path class="cls-2" d="M58,60h1V48h2V60a1.93,1.93,0,0,1-2,2V61A1,1,0,0,0,58,60Z" transform="translate(-1 -1.4)"/><path class="cls-2" d="M65,60h1a1,1,0,0,0-1,1v1a1.93,1.93,0,0,1-2-2V48h2Z" transform="translate(-1 -1.4)"/><path class="cls-2" d="M66,60h1V48h2V60a1.93,1.93,0,0,1-2,2V61A1,1,0,0,0,66,60Z" transform="translate(-1 -1.4)"/><path class="cls-2" d="M73,60h1a1,1,0,0,0-1,1v1a1.93,1.93,0,0,1-2-2V48h2Z" transform="translate(-1 -1.4)"/><path class="cls-2" d="M74,60h1V48h2V60a1.93,1.93,0,0,1-2,2V61A1,1,0,0,0,74,60Z" transform="translate(-1 -1.4)"/><path class="cls-2" d="M82,60h1V48h2V60a1.93,1.93,0,0,1-2,2V61A1,1,0,0,0,82,60Z" transform="translate(-1 -1.4)"/><path class="cls-2" d="M81,60h1a1,1,0,0,0-1,1v1a1.93,1.93,0,0,1-2-2V48h2Z" transform="translate(-1 -1.4)"/><path class="cls-2" d="M89,60h1a1,1,0,0,0-1,1v1a1.93,1.93,0,0,1-2-2V48h2Z" transform="translate(-1 -1.4)"/><path class="cls-2" d="M91,62V61a1,1,0,0,0-1-1h1V48h2V60A1.93,1.93,0,0,1,91,62Z" transform="translate(-1 -1.4)"/><rect class="cls-2" x="49" y="60.6" width="1" height="6"/><rect class="cls-2" x="48" y="60.6" width="1" height="6"/><path class="cls-2" d="M51,69a1,1,0,0,1-1,1V68h1Z" transform="translate(-1 -1.4)"/><path class="cls-2" d="M49,69V68h1v2h0A1,1,0,0,1,49,69Z" transform="translate(-1 -1.4)"/><path class="cls-2" d="M51,61v1H50V60A1,1,0,0,1,51,61Z" transform="translate(-1 -1.4)"/><path class="cls-2" d="M50,62H49V61a1,1,0,0,1,1-1h0Z" transform="translate(-1 -1.4)"/><rect class="cls-2" x="56" y="60.6" width="2" height="6"/><path class="cls-2" d="M57,69V68h2v1a1,1,0,0,1-2,0Z" transform="translate(-1 -1.4)"/><path class="cls-2" d="M58,60a1,1,0,0,1,1,1v1H57V61A1,1,0,0,1,58,60Z" transform="translate(-1 -1.4)"/><rect class="cls-2" x="64" y="60.6" width="2" height="6"/><path class="cls-2" d="M65,69V68h2v1a1,1,0,0,1-2,0Z" transform="translate(-1 -1.4)"/><path class="cls-2" d="M66,60a1,1,0,0,1,1,1v1H65V61A1,1,0,0,1,66,60Z" transform="translate(-1 -1.4)"/><rect class="cls-2" x="72" y="60.6" width="2" height="6"/><path class="cls-2" d="M73,69V68h2v1a1,1,0,0,1-2,0Z" transform="translate(-1 -1.4)"/><path class="cls-2" d="M74,60a1,1,0,0,1,1,1v1H73V61A1,1,0,0,1,74,60Z" transform="translate(-1 -1.4)"/><rect class="cls-2" x="80" y="60.6" width="2" height="6"/><path class="cls-2" d="M81,69V68h2v1a1,1,0,0,1-2,0Z" transform="translate(-1 -1.4)"/><path class="cls-2" d="M82,60a1,1,0,0,1,1,1v1H81V61A1,1,0,0,1,82,60Z" transform="translate(-1 -1.4)"/><rect class="cls-2" x="88" y="60.6" width="2" height="6"/><path class="cls-2" d="M89,69V68h2v1a1,1,0,0,1-2,0Z" transform="translate(-1 -1.4)"/><path class="cls-2" d="M90,60a1,1,0,0,1,1,1v1H89V61A1,1,0,0,1,90,60Z" transform="translate(-1 -1.4)"/><path class="cls-2" d="M87,47v1H85V47a1,1,0,0,0-1-1h4A1,1,0,0,0,87,47Z" transform="translate(-1 -1.4)"/><path class="cls-2" d="M79,47v1H77V47a1,1,0,0,0-1-1h4A1,1,0,0,0,79,47Z" transform="translate(-1 -1.4)"/><path class="cls-2" d="M54,48H53V47A1,1,0,0,0,54,48Z" transform="translate(-1 -1.4)"/><path class="cls-2" d="M52,46h1v1A1,1,0,0,0,52,46Z" transform="translate(-1 -1.4)"/><path class="cls-2" d="M98,48H93V47a1,1,0,0,0-1-1h6a1,1,0,0,1,0,2Z" transform="translate(-1 -1.4)"/><path class="cls-2" d="M53,47v1H50V46h2A1,1,0,0,1,53,47Z" transform="translate(-1 -1.4)"/><path class="cls-2" d="M77,47v1H74a1,1,0,0,0,1-1V46h1A1,1,0,0,1,77,47Z" transform="translate(-1 -1.4)"/><path class="cls-2" d="M85,47v1H79V47a1,1,0,0,1,1-1h4A1,1,0,0,1,85,47Z" transform="translate(-1 -1.4)"/><path class="cls-2" d="M89,48H87V47a1,1,0,0,1,1-1h4a1,1,0,0,1,1,1v1H89Z" transform="translate(-1 -1.4)"/><path class="cls-2" d="M68,46h4a1,1,0,0,0-1,1v1H69V47A1,1,0,0,0,68,46Z" transform="translate(-1 -1.4)"/><path class="cls-2" d="M60,46h4a1,1,0,0,0-1,1v1H61V47A1,1,0,0,0,60,46Z" transform="translate(-1 -1.4)"/><path class="cls-2" d="M56,46a1,1,0,0,0-1,1v1H54a1,1,0,0,1-1-1V46h3Z" transform="translate(-1 -1.4)"/><path class="cls-2" d="M56,46h4a1,1,0,0,1,1,1v1H55V47A1,1,0,0,1,56,46Z" transform="translate(-1 -1.4)"/><path class="cls-2" d="M64,46h4a1,1,0,0,1,1,1v1H63V47A1,1,0,0,1,64,46Z" transform="translate(-1 -1.4)"/><path class="cls-2" d="M74,48H71V47a1,1,0,0,1,1-1h3v1A1,1,0,0,1,74,48Z" transform="translate(-1 -1.4)"/><path class="cls-3" d="M19.21,10.59v15.2a8.4,8.4,0,0,1-7.11,8.16A13,13,0,0,0,1.33,46.85a1,1,0,0,1,1-1h1a11,11,0,0,1,9.06-9.95A10.38,10.38,0,0,0,21.2,25.79V10.59a7,7,0,0,1,7-7H50v-2H28.15A9,9,0,0,0,19.21,10.59Z" transform="translate(-1 -1.4)"/><path class="cls-3" d="M87.9,33.95a8.4,8.4,0,0,1-7.11-8.16V10.59a9,9,0,0,0-8.94-8.94H50v2H71.85a7,7,0,0,1,7,7v3.34H52.48a1,1,0,0,0,0,2H78.8v1.74H62a1,1,0,1,0,0,2H78.8v6.15a10.38,10.38,0,0,0,8.77,10.12,11,11,0,0,1,9.06,9.95h1a1,1,0,0,1,1,1A13,13,0,0,0,87.9,33.95Z" transform="translate(-1 -1.4)"/></svg>