<?xml version="1.0" encoding="utf-8"?>
<!-- Generator: Adobe Illustrator 20.1.0, SVG Export Plug-In . SVG Version: 6.00 Build 0)  -->
<svg version="1.1" id="Layer_1" xmlns="http://www.w3.org/2000/svg" xmlns:xlink="http://www.w3.org/1999/xlink" x="0px" y="0px"
	 viewBox="0 0 24.8 60.7" style="enable-background:new 0 0 24.8 60.7;" xml:space="preserve">
<style type="text/css">
	.st0{fill:#161616;}
	.st1{fill:none;stroke:#161616;stroke-width:2;stroke-linecap:round;stroke-linejoin:round;}
</style>
<title>33 -Violin- (sound, audio, play, music)</title>
<desc>Created with Sketch.</desc>
<g transform="translate(-369.000000, -710.000000)">
	<g transform="translate(370.000000, 711.000000)">
		<g>
			<path d="M12.4,43.2c0,0.6-0.4,1-1,1s-1-0.4-1-1s0.4-1,1-1S12.4,42.6,12.4,43.2"/>
		</g>
		<g>
			<path d="M12.4,37.2c0,0.6-0.4,1-1,1s-1-0.4-1-1s0.4-1,1-1S12.4,36.6,12.4,37.2"/>
		</g>
		<g>
			<path class="st0" d="M11.4,31.2c-1.7,0-3-1.3-3-3v-18c0-0.6,0.4-1,1-1h4c0.6,0,1,0.4,1,1v18C14.4,29.8,13,31.2,11.4,31.2z
				 M10.4,11.2v17c0,0.6,0.4,1,1,1s1-0.4,1-1v-17H10.4z"/>
		</g>
		<g>
			<path class="st0" d="M14.4,11.2h-6c-0.6,0-1-0.4-1-1v-10c0-0.6,0.4-1,1-1h6c0.6,0,1,0.4,1,1v10C15.4,10.7,14.9,11.2,14.4,11.2z
				 M9.4,9.2h4v-8h-4V9.2z"/>
		</g>
		<g>
			<path class="st0" d="M18.4,3.2h-4c-0.6,0-1-0.4-1-1s0.4-1,1-1h4c0.6,0,1,0.4,1,1S18.9,3.2,18.4,3.2z"/>
		</g>
		<g>
			<path class="st0" d="M18.4,4.2c-0.6,0-1-0.4-1-1v-2c0-0.6,0.4-1,1-1s1,0.4,1,1v2C19.4,3.7,18.9,4.2,18.4,4.2z"/>
		</g>
		<g>
			<path class="st0" d="M8.4,8.2h-4c-0.6,0-1-0.4-1-1s0.4-1,1-1h4c0.6,0,1,0.4,1,1S8.9,8.2,8.4,8.2z"/>
		</g>
		<g>
			<path class="st0" d="M4.4,8.2c-0.6,0-1-0.4-1-1v-1c0-0.6,0.4-1,1-1s1,0.4,1,1v1C5.4,7.7,4.9,8.2,4.4,8.2z"/>
		</g>
		<g>
			<path class="st0" d="M8.4,3.2h-4c-0.6,0-1-0.4-1-1s0.4-1,1-1h4c0.6,0,1,0.4,1,1S8.9,3.2,8.4,3.2z"/>
		</g>
		<g>
			<path class="st0" d="M4.4,3.2c-0.6,0-1-0.4-1-1v-1c0-0.6,0.4-1,1-1s1,0.4,1,1v1C5.4,2.7,4.9,3.2,4.4,3.2z"/>
		</g>
		<g>
			<path class="st0" d="M18.4,8.2h-4c-0.6,0-1-0.4-1-1s0.4-1,1-1h4c0.6,0,1,0.4,1,1S18.9,8.2,18.4,8.2z"/>
		</g>
		<g>
			<path class="st0" d="M18.4,9.2c-0.6,0-1-0.4-1-1v-1c0-0.6,0.4-1,1-1s1,0.4,1,1v1C19.4,8.7,18.9,9.2,18.4,9.2z"/>
		</g>
		<g>
			<path class="st0" d="M6.4,46.2c-0.6,0-1-0.4-1-1s0.4-1,1-1c0.2,0,0.3,0,0.3,0c0.1-0.2,0-1-0.1-1.5c-0.2-1-0.3-2.1,0.3-2.9
				c0.2-0.3,0.7-0.6,1.5-0.6c0.6,0,1,0.4,1,1c0,0.5-0.4,1-1,1c0,0.3,0.1,0.8,0.1,1.2c0.2,1.1,0.3,2.3-0.4,3.1
				C7.8,45.9,7.2,46.2,6.4,46.2z"/>
		</g>
		<g>
			<path class="st0" d="M16.4,46.2c-0.8,0-1.4-0.2-1.8-0.7c-0.7-0.8-0.5-2-0.4-3.1c0.1-0.3,0.1-0.9,0.1-1.2c-0.5-0.1-0.9-0.5-0.9-1
				c0-0.6,0.4-1,1-1c0.8,0,1.3,0.3,1.5,0.6c0.7,0.8,0.5,1.8,0.3,2.9c-0.1,0.4-0.2,1.3-0.1,1.5c0,0,0.1,0,0.3,0c0.6,0,1,0.4,1,1
				S16.9,46.2,16.4,46.2z M14.5,41.2L14.5,41.2L14.5,41.2z"/>
		</g>
		<g>
			<path class="st0" d="M11.4,59.2c-0.7,0-1.3-0.1-1.9-0.2l-0.2,0c-0.5-0.1-0.8-0.4-0.9-0.9l-1-9.8c0-0.3,0.1-0.6,0.3-0.8
				s0.5-0.3,0.7-0.3h6c0.3,0,0.6,0.1,0.7,0.3s0.3,0.5,0.3,0.8l-1,9.8c0,0.4-0.4,0.8-0.8,0.9C12.9,59.1,12.2,59.2,11.4,59.2z
				 M10.3,57.1c0.7,0.1,1.5,0.1,2.2,0l0.8-7.9H9.5L10.3,57.1z"/>
		</g>
		<g>
			<path class="st0" d="M11.4,7.2c-0.6,0-1-0.4-1-1v-2c0-0.6,0.4-1,1-1s1,0.4,1,1v2C12.4,6.7,11.9,7.2,11.4,7.2z"/>
		</g>
		<g>
			<path class="st0" d="M11.4,59.2c-0.1,0-0.1,0-0.2,0C4.7,59.1-0.6,53.5-0.6,46.8v-1.6c0-0.4,0.2-0.7,0.6-0.9
				c2.2-1,3.4-2.8,3.4-5.1c0-1.5-0.6-3-1.7-4.2c-0.2-0.2-0.3-0.4-0.3-0.7v-5.1c0-4.6,3.3-8.8,7.8-9.8c0.3-0.1,0.6,0,0.8,0.2
				c0.2,0.2,0.4,0.5,0.4,0.8v7.8c0,0.6,0.4,1,1,1s1-0.4,1-1v-7.8c0-0.3,0.1-0.6,0.4-0.8c0.2-0.2,0.5-0.3,0.8-0.2
				c4.5,1,7.8,5.1,7.8,9.8v5c0,0.3-0.1,0.5-0.3,0.7c-1.1,1.2-1.7,2.7-1.7,4.2c0,2.3,1.2,4.2,3.4,5.2c0.4,0.2,0.6,0.5,0.6,0.9v2
				c0,3.2-1.3,6.3-3.6,8.6C17.5,57.9,14.5,59.2,11.4,59.2z M1.4,45.8v1c0,5.6,4.4,10.3,9.8,10.4c2.7,0,5.3-1,7.2-2.9
				c1.9-1.9,3-4.4,3-7.1v-1.4c-2.5-1.4-4-3.9-4-6.7c0-1.9,0.7-3.8,2-5.3v-4.6c0-3.3-2-6.2-5-7.4v6.4c0,1.7-1.3,3-3,3s-3-1.3-3-3
				v-6.4c-3,1.2-5,4.2-5,7.4v4.7c1.3,1.5,2,3.4,2,5.3C5.4,42,3.9,44.4,1.4,45.8z"/>
		</g>
	</g>
</g>
<g transform="translate(-369.000000, -710.000000)">
	<g transform="translate(370.000000, 711.000000)">
		<path d="M-15.1,43.2c0,0.6-0.4,1-1,1c-0.6,0-1-0.4-1-1s0.4-1,1-1C-15.5,42.2-15.1,42.6-15.1,43.2"/>
		<path d="M-15.1,37.2c0,0.6-0.4,1-1,1c-0.6,0-1-0.4-1-1s0.4-1,1-1C-15.5,36.2-15.1,36.6-15.1,37.2"/>
		<path class="st1" d="M-16.1,30.2L-16.1,30.2c-1.1,0-2-0.9-2-2v-18h4v18C-14.1,29.3-15,30.2-16.1,30.2L-16.1,30.2z"/>
		<polygon class="st1" points="-19.1,10.2 -13.1,10.2 -13.1,0.2 -19.1,0.2 		"/>
		<path class="st1" d="M-13.1,2.2h4"/>
		<path class="st1" d="M-9.1,1.2v2"/>
		<path class="st1" d="M-19.1,7.2h-4"/>
		<path class="st1" d="M-23.1,7.2v-1"/>
		<path class="st1" d="M-19.1,2.2h-4"/>
		<path class="st1" d="M-23.1,2.2v-1"/>
		<path class="st1" d="M-13.1,7.2h4"/>
		<path class="st1" d="M-9.1,7.2v1"/>
		<path class="st1" d="M-19.1,40.2c-2.5,0,1,5-2,5"/>
		<path class="st1" d="M-13.1,40.2c2.5,0-1,5,2,5"/>
		<path class="st1" d="M-13.1,48.2h-6l1,9.8c0.7,0.1,1.3,0.2,2,0.2c0.7,0,1.4-0.1,2-0.2L-13.1,48.2L-13.1,48.2z"/>
		<path class="st1" d="M-16.1,4.2v2"/>
		<path class="st1" d="M-9.1,39.1c0-1.9,0.8-3.6,2-4.9l0,0v-5c0-4.3-3-7.9-7-8.8v7.8c0,1.1-0.9,2-2,2s-2-0.9-2-2v-7.8
			c-4,0.9-7,4.5-7,8.8v5v0.1c1.2,1.3,2,3,2,4.9c0,2.8-1.6,4.9-4,6v1.6c0,6.1,4.7,11.3,10.8,11.4c6.2,0.1,11.2-4.9,11.2-11v-2
			C-7.5,44.1-9.1,41.9-9.1,39.1L-9.1,39.1z"/>
	</g>
</g>
</svg>
