<svg id="Layer_1" data-name="Layer 1" xmlns="http://www.w3.org/2000/svg" viewBox="0 0 96.33 66.64"><defs><style>.cls-1{fill:#444;}</style></defs><title>nature</title><path class="cls-1" d="M98.17,67.52,72.06,32.78a1.61,1.61,0,0,0-1.24-.61,1.55,1.55,0,0,0-1.29.54L61.14,42.5,51,28.17h9.69a1.35,1.35,0,1,0,0-2.67H49.07L41.93,15.44a1.75,1.75,0,0,0-2.63,0l-5.24,7.38H17.5a1.35,1.35,0,1,0,0,2.67H32.17L2.31,67.54a1.18,1.18,0,0,0,0,1.35,1.6,1.6,0,0,0,1.35.68H96.88a1.59,1.59,0,0,0,1.35-.7A1.19,1.19,0,0,0,98.17,67.52ZM40.62,18.69l12.14,17.1-4.55,3.94-6.63-4.6a1.74,1.74,0,0,0-1.93,0L33,39.74l-4.55-3.94ZM6.38,66.91,26.82,38.13l5,4.34a1.72,1.72,0,0,0,2.05.1l6.74-4.68,6.74,4.68a1.7,1.7,0,0,0,1,.29,1.67,1.67,0,0,0,1.09-.39l5-4.34L74.85,66.91Zm72.09,0L62.88,45l7.81-9.11L94,66.91Z" transform="translate(-2.08 -2.95)"/><path class="cls-1" d="M3.62,33.51H17.5a1.35,1.35,0,1,0,0-2.67H3.62a1.35,1.35,0,1,0,0,2.67Z" transform="translate(-2.08 -2.95)"/><path class="cls-1" d="M77.61,29.5a1.45,1.45,0,0,0,1.54,1.34H93a1.35,1.35,0,1,0,0-2.67H79.15A1.45,1.45,0,0,0,77.61,29.5Z" transform="translate(-2.08 -2.95)"/><path class="cls-1" d="M56.51,16.31h5.7a10.68,10.68,0,0,0,21-2.67h4a1.34,1.34,0,0,0,0-2.67H82.88a10.68,10.68,0,0,0-21,2.67H56.51a1.34,1.34,0,1,0,0,2.67Zm16-10.69A8,8,0,1,1,65,16.31H71.2a1.34,1.34,0,1,0,0-2.67H64.52A8,8,0,0,1,72.54,5.62Z" transform="translate(-2.08 -2.95)"/><path class="cls-1" d="M9.79,14.81H23.66a1.45,1.45,0,0,0,1.54-1.34,1.45,1.45,0,0,0-1.54-1.34H9.79a1.45,1.45,0,0,0-1.54,1.34A1.45,1.45,0,0,0,9.79,14.81Z" transform="translate(-2.08 -2.95)"/></svg>