<svg id="Layer_1" data-name="Layer 1" xmlns="http://www.w3.org/2000/svg" viewBox="0 0 94.5 67.71"><defs><style>.cls-1{fill:none;stroke:#333;stroke-linecap:round;stroke-miterlimit:10;stroke-width:2px;}</style></defs><title>zen</title><path d="M59.56,12q-.5,1.57-1,3.15h1.57c-.23-1-.41-1.92-.56-2.89a10.49,10.49,0,0,1-.14-1.55,4.4,4.4,0,0,0-.14-1.32,3.5,3.5,0,0,0-1.83-2,9,9,0,0,0-3.55-.61c-.68,0-1.36-.15-2-.19a10.92,10.92,0,0,0-1.82.12A27.78,27.78,0,0,0,46.7,7,4.1,4.1,0,0,0,44.23,8.6c-.65.93-.45,2.06-.57,3.13A28.08,28.08,0,0,1,43,15.13H44.6q-.48-1.57-1-3.14a5,5,0,0,1-.24-2.47,7.11,7.11,0,0,1,2.28-3.76c.2-.19.41-.37.62-.55,0,0,.34-.27.13-.11l.23-.17a15.27,15.27,0,0,1,1.49-1.05,7.19,7.19,0,0,1,4.4-.8,9,9,0,0,1,1.88.49,6.17,6.17,0,0,1,1,.52c.34.2.6.49.93.7l.39.28,0,0,.23.19c.18.15.35.31.52.47,1.71,1.61,2.89,3.82,2,6.22-.35,1,1.22,1.41,1.57.43,1.17-3.32-.76-6.55-3.34-8.56l-.51-.38-.1-.07,0,0c.17.11-.18-.17-.18-.16a8.2,8.2,0,0,0-3.1-1.53,9.08,9.08,0,0,0-4.6,0,8.17,8.17,0,0,0-2.7,1.22c-.43.3-.49.4-.86.67A12,12,0,0,0,43.28,6a7.37,7.37,0,0,0-1.61,4.28,7.26,7.26,0,0,0,.44,2.38c.31,1,.62,2,.92,2.93a.82.82,0,0,0,1.57,0c.23-1,.41-1.92.56-2.89a16.06,16.06,0,0,0,.19-1.75c0-.21,0-.42,0-.63a1.33,1.33,0,0,1,.09-.5,2.3,2.3,0,0,1,1.7-1.27,21.72,21.72,0,0,1,3.1-.27A10,10,0,0,1,52,8.17c.72.05,1.44.15,2.16.2A5.14,5.14,0,0,1,57.13,9a1.86,1.86,0,0,1,.68,1.8,21.67,21.67,0,0,0,.76,4.76.82.82,0,0,0,1.57,0q.48-1.58,1-3.15C61.45,11.41,59.88,11,59.56,12Z" transform="translate(-2.75 -1.4)"/><path d="M42.92,19.85c.17-2.35.46-4.74.79-7l-1.2.49.06,0-.37-.49.44,1.38.22.71c.06.19.05,0,0,.25a10.58,10.58,0,0,0,.1,1.69,9.28,9.28,0,0,0,2.29,5.18l-.21-.36c0,.22,0-.09,0,.17a1.05,1.05,0,0,1,0,.34c0,.18-.18.33-.49.43-1,.31-.57,1.88.43,1.57a2.32,2.32,0,0,0,1.66-2.76,1.43,1.43,0,0,0-.43-.74,5.75,5.75,0,0,1-.6-.84,7.37,7.37,0,0,1-.76-1.79,9.29,9.29,0,0,1-.37-2.73,4.47,4.47,0,0,0-.28-1.4L43.9,12.9c-.11-.36-.19-.78-.57-1s-1.11-.08-1.2.49c-.36,2.46-.66,4.94-.85,7.42-.08,1,1.55,1,1.63,0Z" transform="translate(-2.75 -1.4)"/><path d="M58.29,35.81q0,2.06-.12,4.12a23,23,0,0,1-.28,3.84,6,6,0,0,1-1.17,2.66A5.69,5.69,0,0,1,54.51,48a7.16,7.16,0,0,1-3.41.57,8.28,8.28,0,0,1-1.94-.39,6.06,6.06,0,0,1-2.27-1.3c-1.62-1.49-1.77-3.76-1.84-5.82-.1-2.71-.19-5.42-.18-8.14,0-1.53,0-3.07.17-4.6,0-.32.06-.63.1-.94.06-.48-.05.41,0-.29,0,.17,0,0,0-.07s0-.26.06-.39a8.43,8.43,0,0,1,.56-2l-.29.29a3,3,0,0,0,1.14-3.61l-1.36.79a9.16,9.16,0,0,0,12.6,0l-1.36-.79a3,3,0,0,0,1.14,3.61l-.29-.29A9,9,0,0,1,58,26.78c0,.08,0,.16,0,.25,0,.31,0-.18,0,.29,0-.23,0,.21,0,.2a2.41,2.41,0,0,1,0,.28c0,.49.09,1,.12,1.47.13,2.17.12,4.36.08,6.53a.81.81,0,0,0,1.63,0,63.78,63.78,0,0,0-.19-8c0-.23-.05-.47-.08-.7V27l0-.31c0-.13,0-.26-.06-.38a12.13,12.13,0,0,0-.31-1.41,6.9,6.9,0,0,0-.3-.82,1.45,1.45,0,0,0-.27-.48c-.16-.16-.36-.22-.49-.41s0,.11-.12-.23a1.68,1.68,0,0,1-.07-.66,2.05,2.05,0,0,1,.12-.6A.82.82,0,0,0,56.74,21a7.51,7.51,0,0,1-10.3,0,.82.82,0,0,0-1.36.79,2.5,2.5,0,0,1,.12,1c0,.53-.62.68-.86,1.15a8.26,8.26,0,0,0-.65,2.19c0,.12,0,.24-.06.36s0,.17,0,.26-.08.53,0,.17c-.07.43-.11.86-.15,1.29-.08.84-.12,1.68-.15,2.52-.07,2.14,0,4.28,0,6.41q.05,2.05.13,4.11A14.87,14.87,0,0,0,43.91,45,7,7,0,0,0,48,49.49a9,9,0,0,0,3.81.72,9.26,9.26,0,0,0,4.58-1.39,7.46,7.46,0,0,0,3.19-5.55c.16-1.21.15-2.45.19-3.67s.08-2.53.11-3.8A.81.81,0,0,0,58.29,35.81Z" transform="translate(-2.75 -1.4)"/><path d="M49.25,58.85A6.37,6.37,0,0,1,47,58.31a21.53,21.53,0,0,0-2.33-1,8.62,8.62,0,0,1-1.3-.4,1.38,1.38,0,0,1-.32-.22c-.15-.14-.07-.05-.16-.21.08.14,0-.13,0-.19,0,.21,0-.08,0-.14s0-.07,0,.05c0,0,0-.1,0-.14s0-.11.05-.16l-1,.57h0l-.57-1a2.27,2.27,0,0,0,0,1.58,3,3,0,0,0,2.11,1.63,19.26,19.26,0,0,1,2.7,1,8.43,8.43,0,0,0,3.09.76c1,.06,1-1.57,0-1.63a6.25,6.25,0,0,1-2.17-.5c-.76-.33-1.49-.7-2.28-1A13.59,13.59,0,0,1,43.46,57a2.55,2.55,0,0,1-.36-.21.69.69,0,0,1-.19-.21q-.06-.13,0,0a1.3,1.3,0,0,1-.06-.19q0-.14,0,0a1.47,1.47,0,0,1,0-.18c0-.25,0,.12,0-.1a1.8,1.8,0,0,1,.06-.21.83.83,0,0,0-.57-1h0a.81.81,0,0,0-1,.57,2.54,2.54,0,0,0,0,1.52,3,3,0,0,0,2.13,1.7,19.33,19.33,0,0,1,2.7,1,8.42,8.42,0,0,0,3.1.76C50.3,60.54,50.29,58.91,49.25,58.85Z" transform="translate(-2.75 -1.4)"/><path d="M52.38,56A1.55,1.55,0,0,0,52,54.67a2.88,2.88,0,0,0-1.75-.57c-1.33-.1-2.68-.16-4-.17-.85,0-1.72,0-2.57.09a2.43,2.43,0,0,0-2.15,1.14,4.58,4.58,0,0,1-.65,1.05,1.51,1.51,0,0,1-1.35.46,6.94,6.94,0,0,1-1.71-.47c-.57-.2-1.15-.4-1.73-.58a10.75,10.75,0,0,0-3.84-.41,9.59,9.59,0,0,0-2,.3c-.58.17-1.12.45-1.69.64l.63,1.49a3.16,3.16,0,0,0,1.15-2.81,10.83,10.83,0,0,0-.39-1.92,16.05,16.05,0,0,1-.33-2.12A67.51,67.51,0,0,1,29.32,42c0-1.47.11-2.94.21-4.41a18.27,18.27,0,0,1,.59-4.23,10,10,0,0,1,5-5.68,14.75,14.75,0,0,1,2.73-1.13A26.3,26.3,0,0,1,40.73,26a9.73,9.73,0,0,0,2.73-.9,5.05,5.05,0,0,1,2.41-.89l-.78-1,0,.05.37-.49a2.48,2.48,0,0,0-1.06,1.14,4.82,4.82,0,0,0-.25.59c0,.08-.1.2,0-.09a3.65,3.65,0,0,0-.2.55,16.55,16.55,0,0,0-.56,3.42A64.23,64.23,0,0,0,43.25,35c0,2.45.16,4.9.21,7.35a7.73,7.73,0,0,0,3.41,6.56,9.15,9.15,0,0,0,7.42.89,7.34,7.34,0,0,0,5.19-5.49,19,19,0,0,0,.28-3.57c0-.76.05-1.52.08-2.28.06-1.6,0-3.21,0-4.81s0-3.31-.09-5a19.49,19.49,0,0,0-.51-3.51,2.58,2.58,0,0,0-.27-.83c.17.23.06.13,0,0a2.8,2.8,0,0,0-.16-.36,3.37,3.37,0,0,0-1.12-1.27l.37.49,0-.05-.78,1c1.28,0,2.24.89,3.4,1.33a39.87,39.87,0,0,0,4.11.92,12.89,12.89,0,0,1,6.6,4,9,9,0,0,1,1.7,3.24A19,19,0,0,1,73.68,38c.18,2.94.27,5.88.2,8.82a32.42,32.42,0,0,1-.56,6.09,7.75,7.75,0,0,0-.38,2.61,2.83,2.83,0,0,0,1.12,2.08l.63-1.49a21,21,0,0,0-3.76-.84,9.5,9.5,0,0,0-3.74.37,16.29,16.29,0,0,1-3.72,1.08c-.94,0-1.41-.84-1.77-1.57A2.48,2.48,0,0,0,59.52,54c-.85-.07-1.72-.09-2.57-.09-1.3,0-2.62.08-3.92.17a3,3,0,0,0-1.71.5,2,2,0,0,0-.51,1c-.34,1,1.24,1.42,1.57.43l.12-.36q.08-.24-.1.14c-.14.15,0,0,.12,0a8.12,8.12,0,0,1,1.7-.13c1.25-.07,2.5-.14,3.75-.1a15.67,15.67,0,0,1,1.79.1l.33.09c.18.08.14.07.2.19a7.48,7.48,0,0,0,.56,1,3.18,3.18,0,0,0,2.79,1.41,14.29,14.29,0,0,0,3.66-1,8.73,8.73,0,0,1,3.46-.43,16.83,16.83,0,0,1,3.5.8c.93.28,1.35-1,.63-1.49-.24-.17-.31-.64-.33-.9a5.55,5.55,0,0,1,.31-1.8,24.82,24.82,0,0,0,.55-4.35,81.53,81.53,0,0,0,0-8.85c-.12-2.87-.1-5.89-1.28-8.56a11.8,11.8,0,0,0-5.32-5.44,17.09,17.09,0,0,0-2.75-1.16,23.66,23.66,0,0,0-3.15-.69,7.82,7.82,0,0,1-2.8-1,5.55,5.55,0,0,0-2.82-.87.82.82,0,0,0-.78,1c.18.43.59.71.85,1.11.05.08.12.22,0,0l.09.23c.05.13.13.43,0,.06l.18.61a16,16,0,0,1,.47,3.25c.11,1.6.09,3.19.08,4.79s0,3.21,0,4.81c0,.76-.05,1.52-.08,2.28a16.36,16.36,0,0,1-.3,3.45,5.44,5.44,0,0,1-1.95,3,7.35,7.35,0,0,1-3.57,1.33A6.72,6.72,0,0,1,46.13,46a6.65,6.65,0,0,1-1-3.48C45,41.38,45,40.25,45,39.12c-.08-2.37-.13-4.75-.11-7.13a42.65,42.65,0,0,1,.33-5.16c0-.34.12-.67.2-1,0-.17.08-.34.13-.5s.07-.22.11-.33l0-.05s.07-.17,0,0a4,4,0,0,1,.3-.57.62.62,0,0,1,.28-.22.92.92,0,0,0,.4-.54c.21-.5-.31-1-.78-1a5.09,5.09,0,0,0-1.76.35c-.62.23-1.15.62-1.74.91a17.28,17.28,0,0,1-3.86.91,15.15,15.15,0,0,0-7.24,3.8A11.36,11.36,0,0,0,28,35.89c-.24,2.93-.36,5.87-.37,8.81A56.64,56.64,0,0,0,28,51.28a29.13,29.13,0,0,0,.6,3.12c.11.47.18,1.5-.28,1.82-.72.5-.3,1.79.63,1.49.48-.16.94-.37,1.41-.54a6.43,6.43,0,0,1,1.7-.32,9.34,9.34,0,0,1,3.42.29c2.08.59,4.55,2.07,6.45.31a4.39,4.39,0,0,0,.81-1.1c.18-.33.19-.48.43-.6a1.93,1.93,0,0,1,.68-.11c.21,0,.42,0,.63,0a27.83,27.83,0,0,1,3.7,0l1.92.1a3.42,3.42,0,0,1,.68.09c.35.09,0-.14,0,0s0,0,.05.16v-.38a.81.81,0,0,0,1.57.43Z" transform="translate(-2.75 -1.4)"/><path d="M17.49,68.38h0a9.5,9.5,0,0,1,.16-5.1,11.3,11.3,0,0,1,2.16-3.8,5.9,5.9,0,0,1,3.36-1.74,15.51,15.51,0,0,1,5.31,0,.83.83,0,0,0,1-.57.81.81,0,0,0-.57-1c-3.36-.47-7.77-.59-10.25,2.18a13.18,13.18,0,0,0-2.54,4.4,11,11,0,0,0-.2,6.08" transform="translate(-2.75 -1.4)"/><path d="M87.28,68.82a11.18,11.18,0,0,0-.16-6,13.32,13.32,0,0,0-2.58-4.52,7.46,7.46,0,0,0-4.1-2.19,17.44,17.44,0,0,0-6.19-.06.81.81,0,0,0-.57,1,.83.83,0,0,0,1,.57h0c2.81-.4,6.63-.49,8.7,1.83a11.17,11.17,0,0,1,2.12,3.68,9.36,9.36,0,0,1,.2,5.22" transform="translate(-2.75 -1.4)"/><path d="M37.74,56.57h0l-1,1a7.62,7.62,0,0,0,3.68.69,3.56,3.56,0,0,0,2.4-2.13l-1.11.29.21.09-.57-1a2.28,2.28,0,0,0,.6,2.44,4.51,4.51,0,0,0,2,.89,11.66,11.66,0,0,1,2,.76,7.93,7.93,0,0,0,3.93.9,2.64,2.64,0,0,0,2-.77,3.07,3.07,0,0,0,.52-.88,1.34,1.34,0,0,0,.13-.56q0-.16,0,0a.89.89,0,0,0,0-.5v.43a2.08,2.08,0,0,0,0-.31.81.81,0,0,0-1.63,0,2,2,0,0,0,0,.3v-.43c0,.08,0,.73,0,.36a2.32,2.32,0,0,0,0,.36,2.35,2.35,0,0,0,2.41,1.95,8.42,8.42,0,0,0,3.94-.84A15.16,15.16,0,0,1,59,58.92,6.08,6.08,0,0,0,61.18,58a2.26,2.26,0,0,0,.68-2.5l-.37.92-.18.08-.92-.37a3.63,3.63,0,0,0,2.39,2.13,7.25,7.25,0,0,0,3.69-.69c1-.33.56-1.9-.43-1.57a7.71,7.71,0,0,1-2.85.69,1.3,1.3,0,0,1-.59-.26,3.26,3.26,0,0,1-.8-1.12.81.81,0,0,0-.92-.37l-.21.09a.81.81,0,0,0-.37.92,2.18,2.18,0,0,1,.07.25c0,.18,0-.2,0,0a1.55,1.55,0,0,1,0,.24c0-.26-.12.27,0,.1a.58.58,0,0,1-.21.26,4.84,4.84,0,0,1-1.58.57,13.09,13.09,0,0,0-1.75.7,7.73,7.73,0,0,1-2.63.79,3.6,3.6,0,0,1-1.28-.05c-.27-.08-.32-.26-.42-.5s0,.11,0-.07a1.7,1.7,0,0,0,0-.33v.43c0-.08,0-.72,0-.37a.81.81,0,0,0-1.63,0c0-.35,0,.29,0,.37v-.43a1.68,1.68,0,0,0,0,.33c0,.23.16-.29,0,0s-.17.41-.41.55a2.65,2.65,0,0,1-1.32.08,7.25,7.25,0,0,1-2.67-.8,14.68,14.68,0,0,0-1.6-.65,7.52,7.52,0,0,1-1.63-.56c-.17-.11,0,0-.14-.11s-.17-.21-.08-.09-.12-.23-.05-.06a1.3,1.3,0,0,1-.07-.25c.05.26.05-.4,0-.09a1.78,1.78,0,0,1,.08-.3.83.83,0,0,0-.57-1l.18.08a.82.82,0,0,0-1.11.29c-.33.66-.71,1.24-1.42,1.38A6.54,6.54,0,0,1,37.17,56a.82.82,0,0,0-1,1h0a.81.81,0,0,0,1.57-.43Z" transform="translate(-2.75 -1.4)"/><path d="M95.65,67.79H7.42a1.59,1.59,0,0,0-1,.38" transform="translate(-2.75 -1.4)"/><path d="M61.87,19.64c-.34-2.32-.59-4.66-.79-7a.83.83,0,0,0-1.22-.7c-.35.15-.43.51-.54.83L59,13.84a4.87,4.87,0,0,0-.32,1.55,9.47,9.47,0,0,1-.37,2.73,7.53,7.53,0,0,1-.69,1.67,5.92,5.92,0,0,1-.57.85,1.8,1.8,0,0,0-.52.85,2.32,2.32,0,0,0,1.66,2.76c1,.31,1.43-1.26.43-1.57-.32-.1-.44-.25-.49-.43s0-.11,0,0a1.9,1.9,0,0,1,0-.23c0-.07,0-.14,0-.22,0,.2,0,0,0,0l-.21.36a9.28,9.28,0,0,0,2.29-5.18,11,11,0,0,0,.1-1.69,3.78,3.78,0,0,1,.27-1L61,12.89l-.37.49.06,0-1.22-.7c.21,2.48.48,5,.85,7.42a.82.82,0,0,0,1,.57.83.83,0,0,0,.57-1Z" transform="translate(-2.75 -1.4)"/><path d="M51.35,10.3q0-.15,0,0a.24.24,0,0,1,.08-.13q-.1.1,0,0a.33.33,0,0,1,.35,0q.12.11,0,0a.24.24,0,0,1,.08.13q0-.14,0,0t0,0a.24.24,0,0,1-.08.13q.1-.1,0,0a.33.33,0,0,1-.35,0q-.12-.11,0,0a.24.24,0,0,1-.08-.13q0,.14,0,0a.81.81,0,0,0,1.63,0,1.42,1.42,0,0,0-1.35-1.42A1.42,1.42,0,1,0,53,10.3a.81.81,0,1,0-1.63,0Z" transform="translate(-2.75 -1.4)"/><path d="M50.67,32.56v3.36a9.77,9.77,0,0,0,.11,2,4,4,0,0,0,2.67,3,10.2,10.2,0,0,0,3.32.24h2a.81.81,0,0,0,0-1.63h0a.81.81,0,0,0,0,1.63h0a.81.81,0,0,0,0-1.63H56.39a6.46,6.46,0,0,1-2.83-.32,1.82,1.82,0,0,1-.66-.52s-.16-.21-.06-.07l-.12-.18A3.3,3.3,0,0,1,52.5,38c.08.18-.05-.16-.07-.22s-.06-.22-.08-.33-.07-.42,0-.12c0-.09,0-.17,0-.26s0-.36,0-.53v-4a.81.81,0,0,0-1.63,0Z" transform="translate(-2.75 -1.4)"/><path d="M50.71,32.47v3.36c0,.33,0,.65,0,1,0,.09,0,.18,0,.27s0,.35,0,.07c0,.12,0,.24-.07.35s-.06.23-.1.34l-.06.18c.07-.19,0,0,0,0a1.93,1.93,0,0,1-.44.66,2.75,2.75,0,0,1-1.87.73c-1.19.07-2.41,0-3.6,0h0a.81.81,0,0,0,0,1.63h0a.81.81,0,0,0,0-1.63h0a.81.81,0,0,0,0,1.63H47.7a4.32,4.32,0,0,0,4.18-2.26,5,5,0,0,0,.46-2.14V32.47a.81.81,0,0,0-1.63,0Z" transform="translate(-2.75 -1.4)"/><path d="M38,30.76a32.36,32.36,0,0,0,.39,9.41A19.85,19.85,0,0,0,41,47.35a12,12,0,0,0,6.38,5,14.42,14.42,0,0,0,4.45.66.81.81,0,0,0,0-1.63,12.62,12.62,0,0,1-4.51-.77,10.23,10.23,0,0,1-1.71-.86,8.12,8.12,0,0,1-1.44-1.11,13.78,13.78,0,0,1-3.64-6.29,25.48,25.48,0,0,1-.79-3.63l0-.21c0-.24,0,.17,0-.07L39.67,38c0-.3-.06-.59-.09-.89,0-.54-.08-1.08-.1-1.62a34.15,34.15,0,0,1,.08-4.39c0-.12,0-.24,0-.36a.81.81,0,0,0-.81-.81.83.83,0,0,0-.81.81Z" transform="translate(-2.75 -1.4)"/><path d="M63.67,30.76a27,27,0,0,1,.15,2.82,32.64,32.64,0,0,1-.51,6.3,17.75,17.75,0,0,1-2.64,6.91,9.59,9.59,0,0,1-1.11,1.38c-.21.22-.43.44-.66.64a8.13,8.13,0,0,1-.68.55A9.87,9.87,0,0,1,54.59,51a12.79,12.79,0,0,1-3.17.36.81.81,0,0,0,0,1.63,12.9,12.9,0,0,0,8.46-2.91,14.79,14.79,0,0,0,4.17-6.59,30.83,30.83,0,0,0,1.3-12.1c0-.22,0-.44-.06-.65a.83.83,0,0,0-.81-.81.81.81,0,0,0-.81.81Z" transform="translate(-2.75 -1.4)"/><path d="M44.14,53.66c-1.65-.87-3.29-1.79-5-2.62L39,51c-.15-.1.21.17,0,0l-.16-.15-.18-.19-.1-.12c-.16-.19.09.12,0,0a7.16,7.16,0,0,1-.48-.75c-.15-.27-.29-.55-.42-.83l-.11-.25-.05-.12c-.09-.21-.17-.42-.24-.64a25.82,25.82,0,0,1-.9-3.16A62,62,0,0,1,35.17,34c0-1-1.67-1-1.63,0A58.6,58.6,0,0,0,35.2,46.6a13.84,13.84,0,0,0,2.26,5,3.17,3.17,0,0,0,1,.85l4.87,2.57c.93.49,1.75-.92.82-1.4Z" transform="translate(-2.75 -1.4)"/><path d="M38.83,50.78a6.66,6.66,0,0,0-2.72-.56,5.45,5.45,0,0,0-4.61,2.66c-.57.89.84,1.7,1.4.82a3.81,3.81,0,0,1,3.29-1.85,4.14,4.14,0,0,1,1.36.2l.44.14c.21.08.08,0,0,0a.83.83,0,0,0,1.11-.29.82.82,0,0,0-.29-1.11Z" transform="translate(-2.75 -1.4)"/><path d="M60.09,55.06c1.65-.87,3.29-1.79,5-2.62a4.33,4.33,0,0,0,1.53-1.72,18.52,18.52,0,0,0,1.93-5.34A63.67,63.67,0,0,0,69.86,34c0-1-1.58-1-1.63,0A55.76,55.76,0,0,1,66.6,46.32q-.24.88-.56,1.73l-.13.35c0,.06-.17.4-.07.18q-.13.31-.28.62a9.33,9.33,0,0,1-.51.93l-.23.33c-.13.17,0,0,0,0l-.12.14a3.58,3.58,0,0,1-.29.3l-.12.1c-.11.09.22-.16.05,0a2.84,2.84,0,0,1-.31.18l-4.76,2.51c-.93.49-.11,1.89.82,1.41Z" transform="translate(-2.75 -1.4)"/><path d="M65.41,52.18s-.25.1,0,0l.42-.14c.2-.06.41-.11.62-.14l.14,0h.09l.49,0a3.8,3.8,0,0,1,3.38,1.85c.56.88,2,.07,1.4-.82a5.48,5.48,0,0,0-4.53-2.65,6.44,6.44,0,0,0-2.8.56.82.82,0,0,0-.29,1.11.83.83,0,0,0,1.11.29Z" transform="translate(-2.75 -1.4)"/><path d="M25.52,59.18a4.33,4.33,0,0,0,1.17,5.17A9.44,9.44,0,0,0,32,66a40.35,40.35,0,0,0,10.52-1.08c1-.21.59-1.78-.43-1.57a52.19,52.19,0,0,1-6.88,1c-.86.06-1.72.08-2.58.06-.35,0-.7,0-1-.06l-.48,0H31l-.29,0a9.89,9.89,0,0,1-1.58-.38l-.32-.12s-.22-.09,0,0l-.14-.06a5.43,5.43,0,0,1-.56-.29l-.22-.15-.11-.07,0,0a3.76,3.76,0,0,1-.38-.34l-.15-.16c-.12-.15.12.17,0,0a3.14,3.14,0,0,1-.23-.37l-.06-.12c-.09-.2,0,.11,0,0s-.06-.17-.09-.26,0-.17-.07-.26l0-.14c0-.21,0,.15,0,0a3.67,3.67,0,0,1,0-.51c0-.12.06-.64,0-.26a4.26,4.26,0,0,1,.15-.67c0-.12.19-.47,0-.08a.83.83,0,0,0-.29-1.11.82.82,0,0,0-1.11.29Z" transform="translate(-2.75 -1.4)"/><path d="M76.32,60c-.13-.29-.08-.19,0-.07s.07.22.1.33a4.36,4.36,0,0,1,.1.49c-.05-.37,0,0,0,.09s0,.22,0,.33,0,.22,0,.32,0-.25,0,0c0,.07,0,.13,0,.2a3.21,3.21,0,0,1-.1.34c0,.07-.12.3,0,0l-.1.2a3.13,3.13,0,0,1-.21.34l-.06.08,0-.05-.17.19a3.73,3.73,0,0,1-.34.32c-.15.13.15-.1-.07.05l-.26.17-.37.21-.18.09-.09,0c-.17.08.17-.07,0,0a8.07,8.07,0,0,1-1.07.34l-.59.13-.35.06-.15,0h-.09c-.53.07-1.07.1-1.61.12a41.08,41.08,0,0,1-9.46-1.05c-1-.21-1.46,1.36-.43,1.57,3.89.79,8,1.47,11.95.93a6.62,6.62,0,0,0,4.77-2.47,4.43,4.43,0,0,0,.24-4.16.82.82,0,0,0-1.11-.29A.83.83,0,0,0,76.32,60Z" transform="translate(-2.75 -1.4)"/><path d="M45.09,61.74a4.78,4.78,0,0,0,1.32,2,7.64,7.64,0,0,0,5.28,1.82.81.81,0,0,0,0-1.63A7.8,7.8,0,0,1,49,63.45a4.45,4.45,0,0,1-1.46-.93l-.24-.25s-.28-.34-.15-.17a4.27,4.27,0,0,1-.32-.51l-.09-.17c-.09-.19,0,0,0,0l0-.13a.81.81,0,0,0-1.57.43Z" transform="translate(-2.75 -1.4)"/><path d="M56.62,61.3l0,.11c-.06.14.1-.23,0,0l-.1.2a4.29,4.29,0,0,1-.29.46c-.12.16.11-.14,0,0l-.12.14-.28.3a4.48,4.48,0,0,1-1.46.93,7.52,7.52,0,0,1-2.72.46.81.81,0,0,0,0,1.63,7.72,7.72,0,0,0,5.28-1.82,4.69,4.69,0,0,0,1.32-2,.81.81,0,0,0-1.57-.43Z" transform="translate(-2.75 -1.4)"/><path d="M54,14.21c0-.05.06-.15,0,.07l.05-.1c.09-.17-.11.11,0-.06,0,0,.06,0,.13,0a1.71,1.71,0,0,1,.39,0A10.46,10.46,0,0,0,56.39,14,.81.81,0,0,0,57,13a.83.83,0,0,0-1-.57c-.64.09-1.25,0-1.89.07a1.82,1.82,0,0,0-1.65,1.31.81.81,0,0,0,1.57.43Z" transform="translate(-2.75 -1.4)"/><path d="M50.75,13.78a1.8,1.8,0,0,0-1.44-1.28c-.69-.1-1.4,0-2.1-.1a.83.83,0,0,0-1,.57.81.81,0,0,0,.57,1,9.49,9.49,0,0,0,1.76.13,1.22,1.22,0,0,1,.62,0q-.08-.06,0,0c-.11-.11,0,0,0,.05s-.06-.18,0,0a.81.81,0,0,0,1.57-.43Z" transform="translate(-2.75 -1.4)"/><path d="M53.33,19.36a2.21,2.21,0,0,1-.91.36,2.91,2.91,0,0,1-2.24-.45c-.89-.56-1.71.85-.82,1.4a4.54,4.54,0,0,0,4.79.09c.87-.57.06-2-.82-1.4Z" transform="translate(-2.75 -1.4)"/><path d="M50.76,18.28h1.89a.81.81,0,0,0,0-1.63H50.76a.81.81,0,0,0,0,1.63Z" transform="translate(-2.75 -1.4)"/><line class="cls-1" x1="1" y1="66.71" x2="93.5" y2="66.71"/></svg>