<svg id="Layer_1" data-name="Layer 1" xmlns="http://www.w3.org/2000/svg" viewBox="0 0 100 72.43"><defs><style>.cls-1{fill:#161616;}</style></defs><title>Artboard 1</title><path class="cls-1" d="M80.49,12.33H94.64A4.37,4.37,0,0,1,99,16.69V66.78a4.37,4.37,0,0,1-4.36,4.36H5.36A4.37,4.37,0,0,1,1,66.78V16.69a4.37,4.37,0,0,1,4.36-4.36H21.69V3.62a2.18,2.18,0,0,1,2.18-2.18H78.31a2.19,2.19,0,0,1,2.18,2.18Zm16.33,4.36a2.18,2.18,0,0,0-2.18-2.18H5.36a2.18,2.18,0,0,0-2.18,2.18V66.78A2.18,2.18,0,0,0,5.36,69H94.64a2.19,2.19,0,0,0,2.18-2.18ZM7.53,18.87a1,1,0,0,1,1.09-1.09H36.93A1,1,0,0,1,38,18.87v4.35a1,1,0,0,1-1.09,1.09H8.62a1,1,0,0,1-1.09-1.09Zm1.09,8.71H91.38a1.09,1.09,0,1,1,0,2.18H8.62a1.09,1.09,0,1,1,0-2.18Zm14.15,6.53A15.24,15.24,0,1,1,7.53,49.35,15.29,15.29,0,0,1,22.78,34.11Zm-13.07-12H35.84V20H9.71ZM22.78,62.42A13.07,13.07,0,1,0,9.71,49.35,13.11,13.11,0,0,0,22.78,62.42Zm0-19.6a6.53,6.53,0,1,1-6.53,6.53A6.55,6.55,0,0,1,22.78,42.82Zm0,10.89a4.36,4.36,0,1,0-4.35-4.36A4.37,4.37,0,0,0,22.78,53.71Zm1.09-41.38H26V5.8H76.13v6.53h2.18V3.62H23.87Zm4.35,0H74V8H28.22Zm15.24,25H56.53a1.09,1.09,0,0,1,0,2.18H43.47a1.09,1.09,0,0,1,0-2.18ZM57.62,55.89H42.38V42.82H57.62ZM43.47,58.07a1.09,1.09,0,1,1-1.09,1.09A1,1,0,0,1,43.47,58.07Zm1.09-4.36H55.44V45H44.56Zm3.27,4.36a1.09,1.09,0,1,1-1.09,1.09A1,1,0,0,1,47.82,58.07Zm4.36,0a1.09,1.09,0,1,1-1.09,1.09A1,1,0,0,1,52.18,58.07Zm4.35,0a1.09,1.09,0,1,1-1.09,1.09A1,1,0,0,1,56.53,58.07Zm2.18-39.2A2.18,2.18,0,1,1,56.53,21,2.18,2.18,0,0,1,58.71,18.87ZM77.22,34.11A15.24,15.24,0,1,1,62,49.35,15.29,15.29,0,0,1,77.22,34.11ZM66.33,18.87A2.18,2.18,0,1,1,64.15,21,2.18,2.18,0,0,1,66.33,18.87ZM77.22,62.42A13.07,13.07,0,1,0,64.16,49.35,13.11,13.11,0,0,0,77.22,62.42Zm0-19.6a6.53,6.53,0,1,1-6.53,6.53A6.55,6.55,0,0,1,77.22,42.82ZM76.13,16.69A4.36,4.36,0,1,1,71.78,21,4.37,4.37,0,0,1,76.13,16.69Zm1.09,37a4.36,4.36,0,1,0-4.36-4.36A4.37,4.37,0,0,0,77.22,53.71ZM76.13,23.22A2.18,2.18,0,1,0,74,21,2.18,2.18,0,0,0,76.13,23.22Zm12-6.53A4.36,4.36,0,1,1,83.75,21,4.37,4.37,0,0,1,88.11,16.69Zm0,6.53A2.18,2.18,0,1,0,85.93,21,2.18,2.18,0,0,0,88.11,23.22Z"/></svg>